# xmcd
#
# Track frame offsets: 
#        150
#        18375
#        27450
#        34500
#        47887
#        58762
#        71924
#        83624
#        91236
#
# Disc length: 1345 seconds
#
# Revision: 0
# Processed by: cddbd v1.5.2PL0 Copyright (c) Steve Scherf et al.
# Submitted via: ExactAudioCopy v0.99pb3
#
DISCID=70053f09
DTITLE=Bill Leggette-George Wood-Jens Richter-(CA) - Bill Leggette and
DTITLE=Friends
DYEAR=2007
DGENRE=Country
TTITLE0=Track01-Doc Brown
TTITLE1=Track02-Better Not Do That
TTITLE2=Track03-If You Go First
TTITLE3=Track04-Cold Heart Medley
TTITLE4=Track05-I Dreamed About Mama
TTITLE5=Track06-Hard to Be Humble
TTITLE6=Track07-Brother Ira
TTITLE7=Track08-Never Get Out of This World Alive
TTITLE8=Track09-Just Waitin`
EXTD=
EXTT0=
EXTT1=
EXTT2=
EXTT3=
EXTT4=
EXTT5=
EXTT6=
EXTT7=
EXTT8=
PLAYORDER=
